Coordinates
version=1
nRows=11
nColumns=40
inDegrees=yes

Units are S.I. units (second, meters, Newtons, ...)
Angles are in degrees.

endheader
time	pelvis_tilt	pelvis_list	pelvis_rotation	pelvis_tx	pelvis_ty	pelvis_tz	hip_flexion_r	hip_adduction_r	hip_rotation_r	knee_angle_r	knee_angle_r_beta	ankle_angle_r	subtalar_angle_r	mtp_angle_r	hip_flexion_l	hip_adduction_l	hip_rotation_l	knee_angle_l	knee_angle_l_beta	ankle_angle_l	subtalar_angle_l	mtp_angle_l	lumbar_extension	lumbar_bending	lumbar_rotation	arm_flex_r	arm_add_r	arm_rot_r	elbow_flex_r	pro_sup_r	wrist_flex_r	wrist_dev_r	arm_flex_l	arm_add_l	arm_rot_l	elbow_flex_l	pro_sup_l	wrist_flex_l	wrist_dev_l
     40.31342857	     -1.79174928	     -3.91240296	      5.99108950	      1.08709680	      0.93478654	      0.48293486	      5.13053386	      2.87189554	    -17.60589293	     13.05613294	     13.05613294	     11.02412485	     -3.22626574	     -4.97936229	     33.60724688	    -11.66564668	     -0.44533969	     45.72963668	     45.72963668	      7.22610217	    -18.30105555	     10.79016450	    -10.22452304	      4.50896491	      2.48339627	     29.43739575	    -20.77395030	     -6.79249636	     90.63969211	     44.56515590	      0.00000000	      0.00000000	     -4.08966149	     -8.01914414	    -15.28646293	     24.30475872	     46.91894814	      0.00000000	      0.00000000
     40.32685714	     -2.14989131	     -3.86374549	      6.60006318	      1.08522091	      0.93427683	      0.48244496	      5.04049515	      2.86370608	    -18.00433645	     12.65475466	     12.65475466	     11.09654964	     -3.39059882	     -5.06080564	     33.88211497	    -10.99185315	     -0.44260099	     41.63390800	     41.63390800	      7.77142645	    -17.87139274	     11.12834964	    -10.08457348	      4.46914475	      2.54471420	     30.91041536	    -21.21402009	     -6.95379968	     91.93352973	     44.54045867	      0.00000000	      0.00000000	     -4.26857863	     -7.93782151	    -15.38162535	     24.25102147	     46.93255920	      0.00000000	      0.00000000
     40.34028571	     -2.43347474	     -3.82750005	      7.18893097	      1.08335636	      0.93375982	      0.48175701	      4.91654991	      2.84495937	    -18.37056692	     12.34694129	     12.34694129	     11.19194358	     -3.56066041	     -5.18453031	     33.94078671	    -10.24619631	     -0.22274564	     37.53292102	     37.53292102	      8.23568197	    -17.18383308	     11.44328130	    -10.07133141	      4.50889541	      2.55892424	     32.24950619	    -21.54902068	     -7.05194882	     93.23625125	     44.51256651	      0.00000000	      0.00000000	     -4.37560317	     -7.89150033	    -15.47031273	     24.22458972	     46.94648384	      0.00000000	      0.00000000
     40.35371429	     -2.58668149	     -3.76989068	      7.74919544	      1.08165786	      0.93331511	      0.48095650	      4.61103267	      2.80438613	    -18.88044585	     11.98917344	     11.98917344	     11.14835137	     -3.51026678	     -5.83641603	     33.69192188	     -9.43269687	      0.23803865	     33.45069667	     33.45069667	      8.26080058	    -16.56828062	     11.03976119	    -10.28046221	      4.52132134	      2.74162945	     32.99520117	    -22.10711330	     -6.97716773	     96.14061917	     44.44927123	      0.00000000	      0.00000000	     -4.35802843	     -7.84601290	    -15.95019264	     24.32852014	     47.02960643	      0.00000000	      0.00000000
     40.36714286	     -2.82958770	     -3.74955917	      8.23759549	      1.07995012	      0.93261392	      0.48011132	      4.54214628	      2.76866309	    -19.11667977	     11.89944959	     11.89944959	     11.32157362	     -3.78023235	     -5.98879441	     33.57588113	     -8.75250915	      0.60356504	     29.82384509	     29.82384509	      8.65402274	    -15.10650855	     11.25833271	    -10.26507855	      4.52961275	      2.85569980	     34.20684126	    -22.39401749	     -7.16789613	     96.86432295	     44.44394547	      0.00000000	      0.00000000	     -4.27154878	     -7.82985835	    -16.02483059	     24.33302722	     47.04358806	      0.00000000	      0.00000000
     40.38057143	     -2.99125552	     -3.74651763	      8.68485953	      1.07842860	      0.93196901	      0.47920354	      4.39516810	      2.74895159	    -19.37356066	     11.85040125	     11.85040125	     11.51336965	     -3.99674330	     -6.17171717	     33.34410214	     -8.13422627	      1.04189436	     26.59296557	     26.59296557	      8.96897826	    -13.47508159	     11.42180942	    -10.33620946	      4.57171382	      2.91660660	     35.27954226	    -22.51476379	     -7.23976084	     97.72467822	     44.43128705	      0.00000000	      0.00000000	     -4.17161149	     -7.86841043	    -16.11913120	     24.35721728	     47.06100693	      0.00000000	      0.00000000
     40.39400000	     -3.14048290	     -3.75505862	      9.07563680	      1.07706991	      0.93128543	      0.47823454	      4.24157116	      2.73063651	    -19.60594662	     11.83606188	     11.83606188	     11.72642386	     -4.14602562	     -6.35121209	     33.12034312	     -7.60345351	      1.38250688	     23.89426465	     23.89426465	      9.18747569	    -11.70399691	     11.52955687	    -10.38748151	      4.62507796	      2.98867767	     36.23414377	    -22.59013168	     -7.27379526	     98.48069576	     44.42139195	      0.00000000	      0.00000000	     -4.03509933	     -7.89522466	    -16.22109184	     24.43749906	     47.07932732	      0.00000000	      0.00000000
     40.40742857	     -3.31269889	     -3.81325423	      9.38227524	      1.07591472	      0.93054609	      0.47726747	      4.13210933	      2.75274954	    -19.80475182	     11.86037528	     11.86037528	     11.94621714	     -4.25376741	     -6.47223176	     32.96322281	     -7.19119859	      1.64670035	     21.79498383	     21.79498383	      9.30672451	    -10.01393187	     11.60442858	    -10.36822069	      4.70163407	      3.11981319	     37.08308920	    -22.62506451	     -7.31690829	     98.95220806	     44.41817478	      0.00000000	      0.00000000	     -3.88086248	     -7.91534498	    -16.28956481	     24.56217352	     47.09156385	      0.00000000	      0.00000000
     40.42085714	     -3.41635641	     -3.82105857	      9.64720791	      1.07498577	      0.92994516	      0.47622272	      3.93393014	      2.71596090	    -19.97454329	     11.91150069	     11.91150069	     12.21635671	     -4.27812790	     -6.55143312	     32.72783031	     -6.82099250	      1.62926349	     20.24615809	     20.24615809	      9.25267625	     -8.34637951	     11.52944334	    -10.41734745	      4.73918007	      3.23083562	     37.73910900	    -22.49875816	     -7.32807821	     99.25828280	     44.42016290	      0.00000000	      0.00000000	     -3.69681858	     -8.00721743	    -16.37429873	     24.76925629	     47.10528092	      0.00000000	      0.00000000
     40.43428571	     -3.51175699	     -3.87388852	      9.81805865	      1.07441893	      0.92929352	      0.47521950	      3.70778401	      2.73133184	    -20.14932192	     11.96014544	     11.96014544	     12.52918028	     -4.18617805	     -6.56581166	     32.50218462	     -6.57890114	      1.39761378	     19.30187906	     19.30187906	      9.09800159	     -6.94218130	     11.19185651	    -10.36714429	      4.75565449	      3.34282758	     38.25708908	    -22.25523706	     -7.36748892	     99.29013535	     44.43306265	      0.00000000	      0.00000000	     -3.52345399	     -8.10061201	    -16.48511238	     25.04302250	     47.12217659	      0.00000000	      0.00000000
     40.44771429	     -3.58674140	     -3.99640508	      9.90955805	      1.07416044	      0.92856178	      0.47420728	      3.46542379	      2.80654741	    -20.35341616	     12.06294578	     12.06294578	     13.11199338	     -3.77252993	     -5.94022979	     32.20791263	     -6.47508014	      0.98889066	     18.71394413	     18.71394413	      8.03680967	     -5.99957447	      8.93170366	    -10.28999230	      4.84695030	      3.18010282	     38.95307577	    -21.59301591	     -7.26124531	     98.54891315	     44.51696570	      0.00000000	      0.00000000	     -3.77846308	     -8.12817301	    -17.03049808	     25.97302640	     47.16982151	      0.00000000	      0.00000000
